<?xml version="1.0" encoding="utf-8"?>
<!-- Generator: Adobe Illustrator 26.0.2, SVG Export Plug-In . SVG Version: 6.00 Build 0)  -->
<svg version="1.1" id="Layer_1" xmlns="http://www.w3.org/2000/svg" xmlns:xlink="http://www.w3.org/1999/xlink" x="0px" y="0px"
	 viewBox="0 0 1920 1080" style="enable-background:new 0 0 1920 1080;" xml:space="preserve">
<style type="text/css">
	.st0{fill:#FF0000;}
	.st1{fill:#FFFFFF;}
</style>
<g>
	<rect x="-6.5" y="-10.5" class="st0" width="1933" height="1099"/>
	<path class="st1" d="M1926-10v1098H-6V-10H1926 M1927-11H-7v1100h1934V-11L1927-11z"/>
</g>
<g>
	<rect x="-12" y="-16" width="126" height="1116"/>
</g>
<g>
	<rect x="197.7" y="-16" width="126" height="1116"/>
</g>
<g>
	<rect x="407.3" y="-16" width="126" height="1116"/>
</g>
<g>
	<rect x="617" y="-16" width="126" height="1116"/>
</g>
<g>
	<rect x="826.7" y="-16" width="126" height="1116"/>
</g>
<g>
	<rect x="1036.3" y="-16" width="126" height="1116"/>
</g>
<g>
	<rect x="1246" y="-16" width="126" height="1116"/>
</g>
<g>
	<rect x="1455.7" y="-16" width="126" height="1116"/>
</g>
<g>
	<rect x="1665.3" y="-16" width="126" height="1116"/>
</g>
<g>
	<rect x="1875" y="-16" width="126" height="1116"/>
</g>
</svg>
